<?xml version="1.0" standalone="no"?>
<!DOCTYPE svg PUBLIC "-//W3C//DTD SVG 20010904//EN"
 "http://www.w3.org/TR/2001/REC-SVG-20010904/DTD/svg10.dtd">
<svg version="1.0" xmlns="http://www.w3.org/2000/svg"
 width="450.000000pt" height="450.000000pt" viewBox="0 0 450.000000 450.000000"
 preserveAspectRatio="xMidYMid meet">
<metadata>
Created by potrace 1.11, written by Peter Selinger 2001-2013
</metadata>
<g transform="translate(0.000000,450.000000) scale(0.100000,-0.100000)"
fill="#000000" stroke="none">
<path d="M2240 4152 c-63 -40 -126 -114 -150 -178 -23 -63 -27 -177 -8 -251
l11 -46 -39 -33 -39 -33 65 15 c343 79 1309 306 1324 311 19 5 18 7 -6 28 -20
17 -68 30 -219 59 -803 153 -752 144 -784 128 -16 -8 -49 -28 -73 -44 -24 -17
-45 -28 -47 -26 -3 2 0 21 6 42 15 55 9 60 -41 28z"/>
<path d="M2835 1278 c-44 -22 -81 -42 -83 -43 -2 -2 15 -27 37 -56 85 -112
129 -284 118 -462 -6 -84 -38 -260 -63 -341 -11 -35 73 26 117 85 117 156 266
442 344 661 l13 36 -198 81 c-109 45 -200 81 -202 81 -2 -1 -39 -19 -83 -42z"/>
<path d="M1558 1154 c-78 -40 -79 -22 4 -190 76 -154 106 -201 140 -226 l31
-21 -5 24 c-3 13 -20 78 -36 144 -17 66 -34 147 -37 180 -9 92 -15 125 -23
125 -4 -1 -37 -17 -74 -36z"/>
<path d="M2320 1013 c-47 -25 -131 -70 -187 -99 l-101 -54 39 -103 c45 -115
163 -358 208 -429 27 -42 85 -87 97 -75 3 3 -3 58 -12 123 -21 144 -23 362 -5
463 7 41 24 106 37 145 13 38 24 71 24 73 0 7 -18 -1 -100 -44z"/>
</g>
</svg>
